<svg aria-hidden="true" style="position: absolute;  overflow: hidden;" version="1.1" xmlns="http://www.w3.org/2000/svg" xmlns:xlink="http://www.w3.org/1999/xlink">
<defs>
<symbol id="icon-github-square" viewBox="0 0 24 28">
<path d="M8.109 18.75v0c0.031-0.047 0.016-0.141-0.047-0.203-0.078-0.063-0.172-0.078-0.219-0.031-0.031 0.047-0.016 0.141 0.047 0.203 0.078 0.063 0.172 0.078 0.219 0.031zM7.672 18.109c-0.047-0.063-0.125-0.094-0.187-0.063-0.047 0.031-0.047 0.125 0 0.187 0.063 0.078 0.141 0.109 0.187 0.078v0c0.047-0.031 0.047-0.125 0-0.203zM7.031 17.484v0c0.016-0.031-0.016-0.094-0.078-0.125-0.047-0.016-0.109-0.016-0.125 0.031-0.031 0.047 0 0.094 0.063 0.125 0.063 0.016 0.125 0.016 0.141-0.031zM7.359 17.844v0c0.031-0.031 0.031-0.109-0.031-0.156-0.047-0.063-0.125-0.078-0.156-0.047-0.047 0.047-0.031 0.109 0.016 0.172 0.047 0.047 0.125 0.078 0.172 0.031zM8.703 19.016v0c0.016-0.063-0.047-0.141-0.141-0.172s-0.172 0-0.203 0.063c-0.016 0.063 0.047 0.141 0.141 0.172s0.172 0 0.203-0.063zM9.359 19.063v0c0-0.063-0.078-0.125-0.187-0.125-0.094 0-0.156 0.063-0.156 0.125s0.078 0.125 0.172 0.125 0.172-0.063 0.172-0.125zM9.969 18.953v0c-0.016-0.063-0.109-0.094-0.203-0.078s-0.156 0.078-0.141 0.141 0.094 0.109 0.187 0.094 0.156-0.094 0.156-0.156zM20 14c0-4.422-3.578-8-8-8s-8 3.578-8 8c0 3.531 2.297 6.531 5.469 7.594 0.406 0.078 0.547-0.172 0.547-0.391 0-0.187 0-0.812-0.016-1.484 0 0-2.219 0.484-2.688-0.953 0 0-0.359-0.922-0.891-1.156 0 0-0.719-0.5 0.063-0.5 0 0 0.781 0.063 1.219 0.828 0.703 1.234 1.875 0.875 2.328 0.672 0.078-0.516 0.281-0.875 0.516-1.078-1.781-0.203-3.656-0.891-3.656-3.953 0-0.875 0.313-1.578 0.828-2.141-0.078-0.203-0.359-1.016 0.078-2.125 0.672-0.203 2.203 0.828 2.203 0.828 0.641-0.187 1.313-0.266 2-0.266s1.359 0.078 2 0.266c0 0 1.531-1.031 2.203-0.828 0.438 1.109 0.156 1.922 0.078 2.125 0.516 0.562 0.828 1.266 0.828 2.141 0 3.078-1.875 3.75-3.656 3.953 0.281 0.25 0.547 0.734 0.547 1.484 0 1.062-0.016 1.922-0.016 2.188 0 0.219 0.141 0.469 0.547 0.391 3.172-1.062 5.469-4.062 5.469-7.594zM24 6.5v15c0 2.484-2.016 4.5-4.5 4.5h-15c-2.484 0-4.5-2.016-4.5-4.5v-15c0-2.484 2.016-4.5 4.5-4.5h15c2.484 0 4.5 2.016 4.5 4.5z"></path>
</symbol>
<symbol id="icon-github" viewBox="0 0 32 32">
<path d="M16 0.396c-8.84 0-16 7.164-16 16 0 7.071 4.584 13.067 10.94 15.18 0.8 0.151 1.093-0.344 1.093-0.769 0-0.38-0.013-1.387-0.020-2.72-4.451 0.965-5.389-2.147-5.389-2.147-0.728-1.847-1.78-2.34-1.78-2.34-1.449-0.992 0.112-0.972 0.112-0.972 1.607 0.112 2.451 1.648 2.451 1.648 1.427 2.447 3.745 1.74 4.66 1.331 0.144-1.035 0.556-1.74 1.013-2.14-3.553-0.4-7.288-1.776-7.288-7.907 0-1.747 0.62-3.173 1.647-4.293-0.18-0.404-0.72-2.031 0.14-4.235 0 0 1.34-0.429 4.4 1.64 1.28-0.356 2.64-0.532 4-0.54 1.36 0.008 2.72 0.184 4 0.54 3.040-2.069 4.38-1.64 4.38-1.64 0.86 2.204 0.32 3.831 0.16 4.235 1.020 1.12 1.64 2.547 1.64 4.293 0 6.147-3.74 7.5-7.3 7.893 0.56 0.48 1.080 1.461 1.080 2.96 0 2.141-0.020 3.861-0.020 4.381 0 0.42 0.28 0.92 1.1 0.76 6.401-2.099 10.981-8.099 10.981-15.159 0-8.836-7.164-16-16-16z"></path>
</symbol>
<symbol id="icon-linkedin" viewBox="0 0 32 32">
<path fill="#0077b5" style="fill: var(--color1, #0077b5)" d="M27.263 27.269h-4.739v-7.425c0-1.771-0.036-4.049-2.469-4.049-2.471 0-2.848 1.927-2.848 3.919v7.556h-4.739v-15.269h4.552v2.081h0.061c0.636-1.2 2.183-2.467 4.493-2.467 4.801 0 5.689 3.16 5.689 7.273zM7.116 9.911c-1.525 0-2.751-1.235-2.751-2.753 0-1.517 1.227-2.751 2.751-2.751 1.52 0 2.752 1.233 2.752 2.751 0 1.519-1.233 2.753-2.752 2.753zM9.492 27.269h-4.752v-15.269h4.752zM29.633 0h-27.272c-1.305 0-2.361 1.032-2.361 2.305v27.389c0 1.275 1.056 2.305 2.361 2.305h27.268c1.304 0 2.371-1.031 2.371-2.305v-27.389c0-1.273-1.067-2.305-2.371-2.305z"></path>
</symbol>
<symbol id="icon-freecodecamp" viewBox="0 0 32 32">
<path fill="#006400" style="fill: var(--color2, #006400)" d="M31.956 16.423c0 3.333-1.139 6.291-3.464 8.908-0.847 0.972-1.524 1.435-1.984 1.435-0.161 0-0.341-0.044-0.461-0.167-0.123-0.128-0.2-0.297-0.2-0.467 0-0.251 0.3-0.633 0.899-1.185 2.419-2.315 3.636-5.193 3.636-8.608 0-3.795-1.257-6.869-3.755-9.248-0.499-0.456-0.76-0.836-0.76-1.136 0-0.16 0.081-0.341 0.219-0.46 0.14-0.12 0.3-0.199 0.461-0.199 0.557 0 1.399 0.679 2.456 2.036 1.997 2.537 2.997 5.593 2.997 9.128zM0 15.576c0-3.332 1.139-6.292 3.464-8.908 0.847-0.972 1.524-1.435 1.987-1.435 0.159 0 0.339 0.044 0.459 0.167 0.12 0.127 0.2 0.252 0.2 0.419 0 0.251-0.3 0.636-0.899 1.224-2.375 2.325-3.615 5.193-3.615 8.616 0 3.796 1.268 6.877 3.761 9.247 0.507 0.459 0.759 0.844 0.759 1.139 0 0.169-0.081 0.341-0.213 0.464-0.132 0.125-0.3 0.213-0.469 0.213-0.581 0-1.377-0.68-2.437-2.024-2.017-2.492-2.996-5.533-2.996-9.121zM23.599 24.735h-14.645c-0.467 0-0.891-0.383-0.891-0.888 0-0.511 0.38-0.891 0.891-0.891h14.645c0.464 0 0.891 0.38 0.891 0.891-0.008 0.513-0.383 0.888-0.891 0.888zM15.599 12.843c0.263-0.033 0.459 0.82 0.481 0.999 0.061 0.471-0.095 0.924-0.308 1.337-0.796 1.553-2.637 2.805-2.149 4.767 0.221 0.847 0.659 1.435 2.019 2.159-0.46 0.159-1.099-0.148-1.459-0.401-1.599-1.088-2.617-2.875-2.517-4.825 0.040-0.619 0.16-1.227 0.319-1.824 0.5-1.708 1.519-3.201 2.117-4.863 0.3-0.799 0.52-1.765 0.281-2.604-0.12-0.412-0.34-0.799-0.62-1.132-0.081-0.101-0.539-0.62-0.719-0.56 0.8-0.3 1.519-0.021 2.216 0.399 0.539 0.32 0.96 0.78 1.279 1.3 0.599 0.959 0.839 2.056 0.959 3.175 0.041 0.46-0.020 1.579 0.52 1.8 0.559 0.239 0.999-0.7 1.119-1.080 0.26-0.86-0.080-1.679-0.419-2.477 0.081 0.161 0.38 0.34 0.519 0.461l0.48 0.459c0.58 0.599 0.939 1.339 1.179 2.139 0.219 0.719 0.32 1.457 0.36 2.177 0.099 1.497-0.24 3.037-0.839 4.415-0.26 0.617-0.599 1.197-1.039 1.697-0.425 0.497-0.997 0.817-1.457 1.276 1.077-1.079 1.651-2.836 1.497-4.175-0.080-0.737-0.319-1.417-0.879-2.096 0 0 0.060 0.477 0.116 0.777 0.1 0.66-0.34 1.36-0.859 1.279-0.38-0.039-0.181-0.857-0.14-1.117 0.14-0.779-0.040-1.539-0.325-2.257-0.279-0.679-0.8-1.219-1.597-1.097z"></path>
</symbol>
</defs>
</svg>
